<svg xmlns="http://www.w3.org/2000/svg" viewBox="0 0 1722.51 596.24"><defs><style>.cls-1{fill:#175191;}.cls-2{fill:#169fd6;}</style></defs><g id="레이어_2" data-name="레이어 2"><g id="기본값"><path class="cls-1" d="M1327,92.85c131.79-26.66,258.06-49.45,392-66.38l3.6-26.31H1339.72C1335.54,30.73,1331.13,62.29,1327,92.85Z"/><path class="cls-1" d="M982.7,541.67h-8.14v4.54a110.1,110.1,0,0,1-2,22.91q-2,9.15-5.9,14.65a21.39,21.39,0,0,1-9.56,7.77A35.07,35.07,0,0,1,944,593.81a34.16,34.16,0,0,1-12.8-2.27,21,21,0,0,1-9.47-7.77q-3.83-5.5-5.9-14.65a106.19,106.19,0,0,1-2.07-22.91V499.42c0-2.16,1.1-3.24,3.32-3.24h17.78q3.49,0,3.49,3.24v47.92q0,6.64.33,10.93a32.17,32.17,0,0,0,1.08,6.72,8.11,8.11,0,0,0,1.75,3.4,3.4,3.4,0,0,0,2.49,1,3.69,3.69,0,0,0,2.57-1,7.57,7.57,0,0,0,1.83-3.4,34.91,34.91,0,0,0,1.16-6.72q.42-4.29.42-10.93V519.17q0-15.22-3.24-21.54t-11.05-6.31H913.75q-3.5,0-3.49-3.24V470.43c0-2.15,1.16-3.24,3.49-3.24h21.1a51.45,51.45,0,0,1,17.61,2.68,27.84,27.84,0,0,1,12,8.33,36.9,36.9,0,0,1,7.06,14.5,99.52,99.52,0,0,1,2.83,21h8.3V468.49q0-3.4,3.33-3.4h19.11q3.32,0,3.32,3.4V591.38q0,3.24-3.32,3.24H986q-3.33,0-3.33-3.24Zm33.9-74.15q0-3.4,3.32-3.4h19.28q3.32,0,3.32,3.4V593q0,3.24-3.32,3.24h-19.28q-3.31,0-3.32-3.24Z"/><path class="cls-1" d="M1087.88,496.34q3.49,0,3.49,3.24V549q0,12.15,2.58,17.08t8.56,4.94q6.13,0,8.72-4.94T1113.8,549V519.17a61.43,61.43,0,0,0-1.08-12.23,22,22,0,0,0-3.65-8.74A15.25,15.25,0,0,0,1102,493a31.76,31.76,0,0,0-11.14-1.7h-30.4q-3.49,0-3.49-3.24V470.43c0-2.15,1.16-3.24,3.49-3.24H1090q28.57,0,41.63,12.55t13,40.4v27.69q0,13.75-3,22.91a36.37,36.37,0,0,1-8.48,14.65,30.28,30.28,0,0,1-13.29,7.77,67.55,67.55,0,0,1-34.73,0,30.39,30.39,0,0,1-13.29-7.77,36.36,36.36,0,0,1-8.47-14.65q-3-9.15-3-22.91V499.58c0-2.16,1.1-3.24,3.32-3.24Zm73.11,99.9q-3.32,0-3.32-3.24V467.52q0-3.4,3.32-3.4h24.1q3.32,0,3.32,3.4V593q0,3.24-3.32,3.24Z"/><path class="cls-1" d="M1209.84,533.9q-3.48,0-3.48-3.4v-9.39q0-3.24,3.48-3.24H1334c2.32,0,3.49,1.08,3.49,3.24v9.39c0,2.27-1.17,3.4-3.49,3.4Zm2.16,62.34q-3.32,0-3.32-3.24V566q0-3.4,3.32-3.4h90.4v-6.8H1212q-3.32,0-3.32-3.24v-7.93q0-3.24,3.32-3.24h119.81q3.32,0,3.32,3.24V571.3q0,3.24-3.32,3.24h-90.23v7h90.89c2.22,0,3.32,1.08,3.32,3.24V593c0,2.16-1.1,3.24-3.32,3.24Zm.84-85q-3.33,0-3.33-3.24V467.36q0-3.24,3.33-3.24h24.59c2.32,0,3.49,1.08,3.49,3.24v27.2h62v-7.13h-53.5q-3.5,0-3.49-3.4v-9.39q0-3.22,3.49-3.23h53.5v-4.05c0-2.16,1.17-3.24,3.49-3.24h24.43q3.5,0,3.49,3.24V508q0,3.24-3.49,3.24Z"/><path class="cls-1" d="M1354.57,495.53q0-3.24,3.49-3.24h90.39l.5-9.87h-89.39q-3.33,0-3.33-3.24V468.33q0-3.24,3.33-3.24h117q3.49,0,3.49,3.24l-.33,12.79a167.35,167.35,0,0,1-1.66,19.51,163.71,163.71,0,0,1-3.66,17.57h6.32c2.32,0,3.49,1.08,3.49,3.24v9.06a3.42,3.42,0,0,1-.92,2.43,3.35,3.35,0,0,1-2.57,1H1356.56a3.28,3.28,0,0,1-2.65-1,3.58,3.58,0,0,1-.83-2.43v-9.06q0-3.24,3.48-3.24h88.07l2-10.53h-88.56c-2.33,0-3.49-1.07-3.49-3.24Zm4.15,100.71q-3.32,0-3.32-3.24V566.45q0-3.41,3.32-3.4h90.4v-6.64h-90.4q-3.32,0-3.32-3.24v-8.1q0-3.23,3.32-3.23h119.81q3.32,0,3.32,3.23v26.4c0,2.16-1.11,3.23-3.32,3.23H1388.3v6.8h90.89c2.22,0,3.32,1.08,3.32,3.24V593c0,2.16-1.1,3.24-3.32,3.24Z"/><path class="cls-1" d="M1503.28,547.34c-2.32,0-3.49-1.08-3.49-3.24V501.68c0-2.16,1.17-3.24,3.49-3.24h48.19V487.92H1503c-2.32,0-3.49-1.08-3.49-3.24V469.79c0-2.16,1.17-3.24,3.49-3.24h75.77q3.49,0,3.49,3.24v41.93q0,3.24-3.49,3.24h-48.35v10.69h17.78q7,0,13.79-.17t13.21-.73c4.26-.37,8.31-.89,12.13-1.53a58.64,58.64,0,0,0,10.55-2.76V467.52q0-3.4,3.49-3.4h23.76q3.5,0,3.49,3.4v85.65q0,3.24-3.49,3.24h-23.76q-3.49,0-3.49-3.24V540.38q-8.31,3.72-22.1,5.34a266.92,266.92,0,0,1-30.91,1.62Zm123.46,23.8q3.33,0,3.33,3.24v17q0,3.24-3.33,3.24H1509.43q-3.32,0-3.32-3.24V560.46q0-3.24,3.32-3.24h25.09q3.33,0,3.33,3.24v10.68Z"/><path class="cls-1" d="M379.2.16H233.52L0,437.2q213.21-84.76,430.89-153.58ZM210.09,295.92l71.88-164,16.8,149.17Z"/><path class="cls-2" d="M1317.57,170.82,1270.68,437.2h364.81q9-51,18-102H1431.88q6-34.31,12.07-68.6h180.28q9-51,18-102H1461.9l3.24-18.4q3.43-19.55,33.39-28.54l-28.88,2.9q-53.91,5.41-108.32,11.94Q1323.47,137.22,1317.57,170.82Z"/><path class="cls-2" d="M332.63,347.63q-26,8.44-22.46,38.38,3,25.59,6.08,51.19H458.89L436.42,314Z"/><path class="cls-2" d="M503,321.41q4.47-25.41,30.68-31.88Q595.54,274.37,657,260.28q-6.6,37.47-13.19,75h62.52c35.2,0,63.2-7.29,69-40.07C781.12,262,757.14,255.78,721,254.7a4.37,4.37,0,0,1-.81-8.64Q796.81,229.15,872.71,214l8.17-1.63c25.39,33,31.68,61.56,26.13,93.11-17.2,97.73-97.85,131.72-211.35,131.72H482.6Q492.79,379.3,503,321.41Z"/><path class="cls-1" d="M768.32.16H559.52q-22.69,128.9-45.37,257.78,195.33-58.77,394.23-104.79c14-28.83,16-35.82,17.24-43.12C940.9,23.23,866.66.16,768.32.16Zm19.06,136.58C782.9,162.23,760,175,731.49,175H672q6.4-36.42,12.82-72.84H735.2C765.55,102.14,793.37,102.75,787.38,136.74Z"/><path class="cls-1" d="M1126.5,0H994.92L966.44,132.29C1002.87,120.89,1086.19,95,1126.5,0Z"/><path class="cls-2" d="M1154.65,1c-10.22,26.84-46.64,111.85-189.9,143.18h0C1195.15,106.87,1202.35.85,1202.35.85Z"/><path class="cls-2" d="M1068.41,335.23q11.74-66.78,23.5-133.54c.22-.82.42-1.67.6-2.59,4.44-23.52,41-34.24,41-34.24l-36.35,6.7h0q-59.73,9.85-120,20.89-27.86,5.16-33,34.45-18.51,105.17-37,210.31h339.92l17.94-102Z"/></g></g></svg>